<svg id="Layer_1" data-name="Layer 1" xmlns="http://www.w3.org/2000/svg" width="217.98" height="62.12" viewBox="0 0 217.98 62.12"><title>Hoka One One logo - Brandlogos.net</title><path d="M406.17,379.5a37.36,37.36,0,0,1-4.16,2.31,20.82,20.82,0,0,1-5.08,1.39,34.48,34.48,0,0,1-3.93.46c-.92.23-1.62.23-2.77.46-1.39.23-3.23.46-5.31.92l-.69.23a37.65,37.65,0,0,0-9.7,2.54,25.66,25.66,0,0,0-3.69,1.62h-.23l-1.39.46c-.92.46-2.54,1.39-3.93,2.08a2.45,2.45,0,0,1-1.85.23,2.34,2.34,0,0,1-1.62-.92c-.92-1.15-2.08-2.77-2.77-3.69-.46-.46-.69-.92-.92-1.15h0a32.79,32.79,0,0,0-2.77-3,42.41,42.41,0,0,0-7.85-6.23l-.69-.46a54.51,54.51,0,0,1-4.62-3l-2.31-1.62s-2.77-1.62-3.46-2.08a28.58,28.58,0,0,1-4.16-3.23c-.69-.92-1.85-2.31-2.54-3.46-.23-.23,0-.46.23-.69a.81.81,0,0,0,.46-.23h.23l.46.46c.46.69,1.85,2.08,2.54,3a25.92,25.92,0,0,0,5.08,3.69l.23.23a25.19,25.19,0,0,0,2.54,1.39c1.62.69,3.46,1.62,5.08,2.31s3.46,1.39,4.85,2.08h.23a49.15,49.15,0,0,1,5.77,3.69,29.44,29.44,0,0,0,5.77,3.46,7.59,7.59,0,0,0,3.93.92,66.63,66.63,0,0,0,6.7-.92c2.31-.46,4.62-.92,6.7-1.15h.23a42.68,42.68,0,0,1,5.31.23,44.21,44.21,0,0,0,5.54,0c.69,0,2.31-.23,2.77-.23h.46a30.24,30.24,0,0,0,6.23-1.39c1.15-.46,2.77-1.39,3.69-1.62l.46-.23h.23c.23,0,.23.23.46.46.46.23.46.46.23.69ZM493,411.83,482.6,355.48a2,2,0,0,0-2.08-1.62H466.9c-2.54,0-2.77,0-3.46,1.39l-.46.92L438,400.28l-9.93-15.7,21.47-26.32a7.71,7.71,0,0,0,1.15-2.77c0-1.15-.69-1.62-3.23-1.62H436.19c-1.62,0-1.85,0-3.23,1.85L413.1,380l4.16-22.4a3.93,3.93,0,0,0,.23-1.62c0-1.62-.69-1.85-3.23-1.85h-9c-3,0-3.23,0-3.69,3l-3.69,20.78c-1.39-15.24-12.7-24.94-29.56-24.94-12.7,0-23.32,5.54-29.79,14.32.46.23.69.46,1.15.69l.46.23c.23.23,1.62.92,2.31,1.39a54.18,54.18,0,0,0,5.08,2.31h.23c1.62.69,3.46,1.39,5.08,2.08h.23a17.51,17.51,0,0,1,14.09-6.23c8.08,0,13.62,4.85,14.78,12.24a32.52,32.52,0,0,1,4.62.23h5.77c.69,0,2.31-.23,2.54-.23h.46a23.45,23.45,0,0,0,5.77-1.39c.92-.46,2.77-1.15,3.46-1.62l.46-.23h.23a2.93,2.93,0,0,1,1.39-.23,3.59,3.59,0,0,1,1.85,1.39,2.27,2.27,0,0,1-.69,3.23,29.58,29.58,0,0,1-4.62,2.54,24.36,24.36,0,0,1-5.54,1.39c-.46,0-2.08.23-3.46.46h-.46c-.92.23-1.85.23-3,.46-1.39.23-3,.46-5.31.69l-.69.23a15.89,15.89,0,0,1-3,.46C379.61,395,373.15,400,364.6,400c-9.7,0-15.93-6.47-15.24-15.93a13.63,13.63,0,0,1,.46-3.23c-.69-.46-1.62-1.15-2.77-1.85l-.69-.46a54.51,54.51,0,0,1-4.62-3c-.92-.69-1.85-1.15-2.54-1.62l-.46-.23c-1.39-.69-2.54-1.62-3-1.85a33.76,33.76,0,0,1-4.39-3.69,50.72,50.72,0,0,1-3.23-4.16,2.71,2.71,0,0,1,3-3.69,1.27,1.27,0,0,1,1.15.69l.23.23h0l.23.23a14.82,14.82,0,0,0,2.31,3c.69.69,1.39,1.15,2.08,1.85l1.62-8.77.23-1.62c.23-1.39-.69-1.85-3.23-1.85h-9.47c-3,0-3.23,0-3.69,3L319.11,376H297.64l3.23-18.47a3.93,3.93,0,0,0,.23-1.62c0-1.62-.69-1.85-3.23-1.85h-9.24c-3,0-3.23,0-3.69,3l-9.7,53.57-.23,1.62c0,1.62.69,1.85,3.23,1.85h9.24c3,0,3.23,0,3.69-3l3.93-21.94H316.8l-3.93,21.47a3.93,3.93,0,0,0-.23,1.62c0,1.62.92,1.85,3.46,1.85h9c3,0,3.23,0,3.69-3l3.93-21.24c1.39,15.24,13.16,25.17,30.71,25.17,11.31,0,20.55-4.16,26.55-12a45.77,45.77,0,0,0,4.39-7.16l-2.54,14.78-.23,1.62c-.23,1.62.46,1.85,3,1.85h9c3,0,3.23,0,3.69-3l4.39-24a51.06,51.06,0,0,0,4.16,7.85l10.39,17.32c1.15,1.85,1.15,1.85,3,1.85h15.93c2.54,0,2.77,0,3.46-1.39l.46-.92,4.62-8.54H475l1.39,9.47a1.53,1.53,0,0,0,1.62,1.39h13.16a1.82,1.82,0,0,0,1.85-1.85v-.46ZM460.43,391l9.7-19.17L472.67,391Z" transform="translate(-275.01 -352.94)" style="fill:#0082c8"/></svg>