<?xml version="1.0" encoding="UTF-8"?> <svg xmlns="http://www.w3.org/2000/svg" width="413" height="211" viewBox="0 0 413 211" fill="none"> <path d="M317.32 57.7136C309.33 57.7136 302.835 51.1504 302.835 43.0749C302.835 35.0599 309.34 28.5471 317.32 28.5471C325.28 28.5471 331.755 35.0599 331.755 43.0749C331.755 51.1504 325.28 57.7136 317.32 57.7136ZM317.33 14.604C298.207 14.604 285.358 26.0871 285.358 43.1959C285.358 59.5081 299.111 71.7978 317.33 71.7978C336.172 71.7978 349.332 60.0324 349.332 43.1959C349.332 26.0871 336.473 14.604 317.33 14.604Z" fill="black"></path> <path d="M252.864 15.4711H241.351V30.2408L249.15 30.2711C255.495 30.2711 260.654 35.806 260.654 42.6011C260.654 50.9588 253.979 55.0218 249.462 55.1327H235.197V0.136719H217.53V69.9125H249.351C263.425 69.9125 278.482 59.1855 278.482 43.206C278.482 25.8452 265.463 15.4711 252.864 15.4711Z" fill="black"></path> <path d="M93.4763 42.7019C93.4763 35.7959 98.9873 30.1804 105.763 30.1804H119.767L108.463 49.2248H125.348L136.711 31.2893V15.5114L102.972 15.5517C88.2664 15.5517 76.2907 27.7406 76.2907 42.7321C76.2907 57.7237 88.2564 69.9125 102.972 69.9125H136.812V55.2133H105.753C98.9873 55.2133 93.4763 49.5978 93.4763 42.7019Z" fill="black"></path> <path d="M43.1445 0.136857H0V69.9127H17.1454V15.3603L39.3802 15.3805C45.4734 15.3905 51.9983 18.6671 51.9983 27.8415C51.9983 34.8584 47.0996 40.1816 40.2334 40.1816L23.088 40.1715V54.7094H35.1039C45.4232 55.1328 49.9906 59.9116 50.0509 70.205V85.126H68.0395V65.265C68.0395 54.7396 60.6513 49.3862 53.5442 47.5816C64.7168 43.7707 70.2077 35.0096 70.2077 24.3835C70.2077 9.40199 56.1642 0.136857 43.1445 0.136857Z" fill="black"></path> <path d="M397.094 40.8569C409 37.0863 412.383 30.513 412.433 17.4269V15.4106H394.946V18.3645C394.946 27.1256 391.262 33.4065 383.061 33.4065H374.749V0.136719H357.001V69.9125H374.749V48.1561H381.113C389.937 48.1561 395.327 53.2877 395.327 61.3733V69.9125H412.965V61.958C412.975 51.5335 408.377 44.0024 397.094 40.8569Z" fill="black"></path> <path d="M264.659 145.566C309.972 127.086 338.19 116.43 412.975 97.9196C372.39 100.652 282.558 106.933 220.652 119.243C220.652 119.243 263.706 144.991 264.659 145.566Z" fill="black"></path> <path d="M123.742 206.803H182.968C194.703 188.696 206.377 179.864 219.969 170.044C209.68 166.002 199.34 162.08 188.83 158.289C151.006 175.307 129.966 198.132 123.742 206.803Z" fill="black"></path> <path d="M135.446 140.918C82.645 160.164 53.3131 180.953 33.4875 206.692L98.8367 206.803C105.211 197.759 129.494 171.698 175.118 153.561C162.54 149.226 149.6 145.062 136.099 141.049C135.757 140.969 135.537 140.928 135.446 140.918Z" fill="black"></path> <path d="M162.57 100.4H17.8579C163.754 127.268 234.052 161.798 347.103 210.634C337.437 203.264 181.622 109.766 162.57 100.4Z" fill="black"></path> <path d="M162.399 42.7019C162.399 35.7959 167.91 30.1804 174.686 30.1804H188.69L177.387 49.2248H194.271L205.634 31.2893V15.5114L171.896 15.5517C157.18 15.5517 145.214 27.7507 145.214 42.7321C145.214 57.7237 157.18 69.9125 171.896 69.9125H205.735V55.2133H174.676C167.91 55.2133 162.399 49.5978 162.399 42.7019Z" fill="black"></path> </svg> 